# xmcd
#
# Track frame offsets:
#	150
#	13960
#	26517
#	42210
#	55775
#	68782
#	81840
#	95707
#	107937
#	119307
#	133237
#	145022
#	158447
#	169315
#	182235
#	196455
#	211712
#	224815
#	237845
#	250247
#	263322
#	277730
#
# Disc length: 3858 seconds
#
# Revision: 0
# Processed by: cddbd v1.5.1PL0 Copyright (c) Steve Scherf et al.
# Submitted via: dBpowerAMP V4.0
#
DISCID=3c0f1016
DTITLE=Al Martinino - Collection
DYEAR=2002
DGENRE=Blues
TTITLE0=Here in my heart
TTITLE1=Spanish eyes
TTITLE2=Granada
TTITLE3=Wanted
TTITLE4=The story of tina
TTITLE5=Summertime
TTITLE6=Born free
TTITLE7=I love you because
TTITLE8=The look of love
TTITLE9=Crying in the chapel
TTITLE10=Rachel
TTITLE11=If you go away
TTITLE12=The man from Laramie
TTITLE13=Volare
TTITLE14=Take my heart
TTITLE15=Can't take my eyes off you
TTITLE16=For all we know now
TTITLE17=The more i see you
TTITLE18=Dream a little dream of me
TTITLE19=The white rose of Athens
TTITLE20=Now
TTITLE21=Nessun dorma
EXTD=Al Martinino, Collection
EXTT0=
EXTT1=
EXTT2=
EXTT3=
EXTT4=
EXTT5=
EXTT6=
EXTT7=
EXTT8=
EXTT9=
EXTT10=
EXTT11=
EXTT12=
EXTT13=
EXTT14=
EXTT15=
EXTT16=
EXTT17=
EXTT18=
EXTT19=
EXTT20=
EXTT21=
PLAYORDER=
